<svg width="258" height="65" viewBox="0 0 258 65" fill="none" xmlns="http://www.w3.org/2000/svg">
<g id="Frame 2" clip-path="url(#clip0_4_32)">
<path id="wordle" d="M84.4043 22.3359L77.5488 61.7695L60.9082 62.1211L57.334 42.2578L53.7598 60.5977L37.1191 61.1836L30.2051 23.5078L44.7363 22.2188L47.666 45.3633L51.5918 23.9766H63.0176L67.5879 45.6562L69.9316 21.0469L84.4043 22.3359ZM121.377 40.5586C121.377 42.3359 121.172 44.0547 120.762 45.7148C120.352 47.3555 119.756 48.8984 118.975 50.3438C118.213 51.7891 117.275 53.1172 116.162 54.3281C115.068 55.5195 113.828 56.5449 112.441 57.4043C111.074 58.2637 109.58 58.9375 107.959 59.4258C106.338 59.8945 104.619 60.1289 102.803 60.1289C101.045 60.1289 99.3652 59.9043 97.7637 59.4551C96.1816 59.0059 94.6973 58.3809 93.3105 57.5801C91.9238 56.7598 90.6641 55.7832 89.5312 54.6504C88.418 53.498 87.4609 52.2285 86.6602 50.8418C85.8789 49.4355 85.2637 47.9316 84.8145 46.3301C84.3848 44.7285 84.1699 43.0586 84.1699 41.3203C84.1699 39.6211 84.375 37.9609 84.7852 36.3398C85.1953 34.6992 85.7812 33.1562 86.543 31.7109C87.3242 30.2656 88.2617 28.9375 89.3555 27.7266C90.4492 26.5156 91.6699 25.4707 93.0176 24.5918C94.3848 23.7129 95.8594 23.0293 97.4414 22.541C99.0234 22.0527 100.693 21.8086 102.451 21.8086C105.283 21.8086 107.861 22.248 110.186 23.127C112.529 24.0059 114.521 25.2656 116.162 26.9062C117.822 28.5273 119.102 30.5 120 32.8242C120.918 35.1289 121.377 37.707 121.377 40.5586ZM108.369 41.3203C108.369 40.4805 108.242 39.6699 107.988 38.8887C107.754 38.0879 107.402 37.3848 106.934 36.7793C106.465 36.1543 105.879 35.6562 105.176 35.2852C104.492 34.8945 103.701 34.6992 102.803 34.6992C101.885 34.6992 101.064 34.8652 100.342 35.1973C99.6191 35.5293 98.9941 35.9883 98.4668 36.5742C97.959 37.1406 97.5684 37.8145 97.2949 38.5957C97.0215 39.3574 96.8848 40.168 96.8848 41.0273C96.8848 41.8477 97.002 42.668 97.2363 43.4883C97.4707 44.3086 97.8223 45.0508 98.291 45.7148C98.7598 46.3789 99.3359 46.916 100.02 47.3262C100.723 47.7363 101.533 47.9414 102.451 47.9414C103.369 47.9414 104.189 47.7656 104.912 47.4141C105.654 47.043 106.279 46.5547 106.787 45.9492C107.295 45.3242 107.686 44.6113 107.959 43.8105C108.232 43.0098 108.369 42.1797 108.369 41.3203ZM157.764 34.7578C157.764 36.2812 157.627 37.668 157.354 38.918C157.1 40.1484 156.689 41.2812 156.123 42.3164C155.557 43.3516 154.824 44.3086 153.926 45.1875C153.027 46.0664 151.943 46.9062 150.674 47.707L157.646 60.1289L144.463 62.707L139.951 50.2266L136.318 50.3438L135.791 62.5312H123.193C123.291 58.0781 123.379 53.6445 123.457 49.2305C123.555 44.8164 123.662 40.3828 123.779 35.9297C123.818 33.6836 123.857 31.457 123.896 29.25C123.936 27.043 124.014 24.8164 124.131 22.5703C125.498 22.0625 126.846 21.6426 128.174 21.3105C129.502 20.9785 130.83 20.7246 132.158 20.5488C133.506 20.3535 134.863 20.2266 136.23 20.168C137.617 20.0898 139.033 20.0508 140.479 20.0508C142.705 20.0508 144.854 20.3633 146.924 20.9883C149.014 21.5938 150.859 22.5117 152.461 23.7422C154.062 24.9727 155.342 26.5059 156.299 28.3418C157.275 30.1777 157.764 32.3164 157.764 34.7578ZM144.639 35.6953C144.639 34.875 144.521 34.123 144.287 33.4395C144.072 32.7559 143.74 32.1699 143.291 31.6816C142.861 31.1738 142.314 30.7832 141.65 30.5098C141.006 30.2168 140.244 30.0703 139.365 30.0703C138.975 30.0703 138.594 30.0996 138.223 30.1582C137.852 30.1973 137.49 30.2656 137.139 30.3633L136.67 41.2617H137.373C138.213 41.2617 139.062 41.1543 139.922 40.9395C140.801 40.7246 141.582 40.3926 142.266 39.9434C142.969 39.4941 143.535 38.918 143.965 38.2148C144.414 37.5117 144.639 36.6719 144.639 35.6953ZM193.008 39.7383C193.008 42.4727 192.656 44.9238 191.953 47.0918C191.25 49.2598 190.264 51.1836 188.994 52.8633C187.744 54.5234 186.25 55.9395 184.512 57.1113C182.773 58.2832 180.869 59.25 178.799 60.0117C176.729 60.7539 174.521 61.3008 172.178 61.6523C169.854 62.0039 167.461 62.1797 165 62.1797C164.082 62.1797 163.184 62.1602 162.305 62.1211C161.426 62.0625 160.527 61.9844 159.609 61.8867L160.43 23.7422C162.578 23.0586 164.785 22.5801 167.051 22.3066C169.336 22.0137 171.602 21.8672 173.848 21.8672C176.641 21.8672 179.209 22.2578 181.553 23.0391C183.896 23.8203 185.918 24.9727 187.617 26.4961C189.316 28 190.635 29.8652 191.572 32.0918C192.529 34.2988 193.008 36.8477 193.008 39.7383ZM173.086 50.9883C174.258 50.8125 175.322 50.4609 176.279 49.9336C177.256 49.3867 178.096 48.7227 178.799 47.9414C179.502 47.1406 180.039 46.2422 180.41 45.2461C180.801 44.2305 180.996 43.1562 180.996 42.0234C180.996 40.9102 180.879 39.875 180.645 38.918C180.41 37.9414 180.029 37.1016 179.502 36.3984C178.975 35.6758 178.281 35.1094 177.422 34.6992C176.562 34.2695 175.508 34.0352 174.258 33.9961L173.086 50.9883ZM220.547 47.4727L219.316 60.4805L194.648 62.4141L195.586 20.5781H210.82L208.652 47.4727H220.547ZM254.619 39.3281C254.619 41.0273 254.502 42.7266 254.268 44.4258C250.928 44.6406 247.607 44.9922 244.307 45.4805C241.006 45.9492 237.705 46.418 234.404 46.8867C234.912 48.293 235.703 49.416 236.777 50.2559C237.871 51.0957 239.17 51.5156 240.674 51.5156C241.455 51.5156 242.305 51.3691 243.223 51.0762C244.16 50.7832 245.088 50.4219 246.006 49.9922C246.924 49.543 247.803 49.0645 248.643 48.5566C249.482 48.0488 250.205 47.5898 250.811 47.1797L249.404 60.4805C248.643 61.0664 247.812 61.5645 246.914 61.9746C246.035 62.3848 245.117 62.7168 244.16 62.9707C243.203 63.2246 242.236 63.4102 241.26 63.5273C240.283 63.6445 239.326 63.7031 238.389 63.7031C236.455 63.7031 234.688 63.4395 233.086 62.9121C231.484 62.3848 230.029 61.6523 228.721 60.7148C227.432 59.7578 226.299 58.6348 225.322 57.3457C224.346 56.0566 223.535 54.6504 222.891 53.127C222.246 51.6035 221.758 49.9922 221.426 48.293C221.094 46.5938 220.928 44.875 220.928 43.1367C220.928 41.3203 221.094 39.5039 221.426 37.6875C221.758 35.8711 222.256 34.123 222.92 32.4434C223.604 30.7637 224.453 29.2109 225.469 27.7852C226.504 26.3398 227.705 25.0801 229.072 24.0059C230.439 22.9316 231.982 22.0918 233.701 21.4863C235.439 20.8809 237.354 20.5781 239.443 20.5781C241.182 20.5781 242.764 20.8223 244.189 21.3105C245.635 21.7793 246.914 22.4434 248.027 23.3027C249.16 24.1426 250.137 25.1484 250.957 26.3203C251.797 27.4922 252.48 28.7812 253.008 30.1875C253.555 31.5742 253.955 33.0488 254.209 34.6113C254.482 36.1543 254.619 37.7266 254.619 39.3281ZM242.9 37.8047C242.9 37.2578 242.842 36.7012 242.725 36.1348C242.607 35.5488 242.412 35.0215 242.139 34.5527C241.885 34.084 241.543 33.7031 241.113 33.4102C240.684 33.0977 240.146 32.9414 239.502 32.9414C238.721 32.9414 238.027 33.1562 237.422 33.5859C236.836 33.9961 236.328 34.5234 235.898 35.168C235.469 35.793 235.117 36.4766 234.844 37.2188C234.57 37.9609 234.365 38.6445 234.229 39.2695L242.9 38.4492V37.8047Z" fill="#F1EDED"/>
<g id="camera">
<g id="arm_1">
<g id="Rectangle 4" filter="url(#filter0_d_4_32)">
<rect width="11.5382" height="5.9338" transform="matrix(0.0828869 0.996559 -0.995792 0.0916409 20.2888 37.3154)" fill="#D9D9D9"/>
<rect x="-0.456453" y="0.5441" width="10.5382" height="4.9338" transform="matrix(0.0828869 0.996559 -0.995792 0.0916409 20.412 38.2645)" stroke="black"/>
</g>
<line id="Line 8" y1="-0.5" x2="11.2264" y2="-0.5" transform="matrix(0.0828869 0.996559 -0.995792 0.0916409 16.456 37.9393)" stroke="black"/>
<line id="Line 9" y1="-0.5" x2="11.2264" y2="-0.5" transform="matrix(0.0828869 0.996559 -0.995792 0.0916409 18.2354 37.6273)" stroke="black"/>
</g>
<g id="arm_2">
<g id="Rectangle 9" filter="url(#filter1_d_4_32)">
<rect width="14.4825" height="6.12205" transform="matrix(0.805173 0.593041 -0.546333 0.837568 19.7927 47.3188)" fill="#D9D9D9"/>
<rect x="0.12942" y="0.715304" width="13.4825" height="5.12205" transform="matrix(0.805173 0.593041 -0.546333 0.837568 20.2087 47.3582)" stroke="black"/>
</g>
<line id="Line 10" y1="-0.5" x2="14.1808" y2="-0.5" transform="matrix(0.805173 0.593041 -0.546298 0.837591 17.5975 50.796)" stroke="black"/>
<line id="Line 11" y1="-0.5" x2="14.1808" y2="-0.5" transform="matrix(0.805173 0.593041 -0.546298 0.837591 18.7427 49.2217)" stroke="black"/>
</g>
<g id="armConnction_1">
<path id="Ellipse 21" d="M20.7011 36.0675C20.7011 38.0553 19.1753 39.623 17.3457 39.623C15.5161 39.623 13.9903 38.0553 13.9903 36.0675C13.9903 34.0798 15.5161 32.5121 17.3457 32.5121C19.1753 32.5121 20.7011 34.0798 20.7011 36.0675Z" fill="#D9D9D9" stroke="black"/>
<path id="Ellipse 22" d="M19.2182 36.2235C19.2182 37.2637 18.4227 38.0632 17.4939 38.0632C16.5652 38.0632 15.7697 37.2637 15.7697 36.2235C15.7697 35.1834 16.5652 34.3839 17.4939 34.3839C18.4227 34.3839 19.2182 35.1834 19.2182 36.2235Z" fill="#ACACAC" stroke="black"/>
</g>
<g id="armConnction_2">
<path id="Ellipse 18" d="M21.5908 49.4817C21.5908 51.4695 20.065 53.0372 18.2354 53.0372C16.4058 53.0372 14.88 51.4695 14.88 49.4817C14.88 47.494 16.4058 45.9263 18.2354 45.9263C20.065 45.9263 21.5908 47.494 21.5908 49.4817Z" fill="#D9D9D9" stroke="black"/>
<path id="Ellipse 19" d="M20.1079 49.6377C20.1079 50.6779 19.3124 51.4774 18.3837 51.4774C17.4549 51.4774 16.6594 50.6779 16.6594 49.6377C16.6594 48.5976 17.4549 47.798 18.3837 47.798C19.3124 47.798 20.1079 48.5976 20.1079 49.6377Z" fill="#ACACAC" stroke="black"/>
</g>
<g id="cameraArmConn">
<path id="cameraArmConnBody" d="M14.1431 24.1282L28.6736 32.9526C26.3325 36.6807 21.5278 37.8458 17.7064 35.525L17.5087 35.405C13.6874 33.0843 12.2442 28.1248 14.1431 24.1282Z" fill="#D9D9D9" stroke="black"/>
<line id="Line 14" y1="-0.5" x2="13.8519" y2="-0.5" transform="matrix(0.854725 0.51908 -0.481159 0.876633 12.304 30.4523)" stroke="black"/>
<line id="Line 15" y1="-0.5" x2="4.50736" y2="-0.5" transform="matrix(0.854725 0.51908 -0.481159 0.876633 20.9045 33.5719)" stroke="black"/>
<line id="Line 16" y1="-0.5" x2="4.50736" y2="-0.5" transform="matrix(0.854725 0.51908 -0.481159 0.876633 12.9867 28.7114)" stroke="black"/>
</g>
<g id="cameraArmConnBottom">
<path id="cameraArmConnBody_2" d="M33.4536 60.5242H23.7771V57.6276C23.7771 54.9555 25.9432 52.7893 28.6153 52.7893C31.2874 52.7893 33.4536 54.9555 33.4536 57.6276V60.5242Z" fill="#D9D9D9" stroke="black"/>
<path id="Ellipse 19_2" d="M30.4879 56.5008C30.4879 57.541 29.6924 58.3405 28.7636 58.3405C27.8348 58.3405 27.0393 57.541 27.0393 56.5008C27.0393 55.4607 27.8348 54.6611 28.7636 54.6611C29.6924 54.6611 30.4879 55.4607 30.4879 56.5008Z" fill="#ACACAC" stroke="black"/>
</g>
<g id="mainbodyCamera">
<g id="bodyCamBottomContainer">
<path id="Ellipse 23" d="M24.2599 13.9185C24.2599 19.6967 19.813 24.3371 14.38 24.3371C8.94694 24.3371 4.5 19.6967 4.5 13.9185C4.5 8.1404 8.94694 3.5 14.38 3.5C19.813 3.5 24.2599 8.1404 24.2599 13.9185Z" fill="#D9D9D9" stroke="black"/>
<g id="Rectangle 10">
<mask id="path-21-inside-1_4_32" fill="white">
<path d="M18.4964 3.86133L54.8363 25.9308L44.4564 44.8423L8.11644 22.7728L18.4964 3.86133Z"/>
</mask>
<path d="M18.4964 3.86133L54.8363 25.9308L44.4564 44.8423L8.11644 22.7728L18.4964 3.86133Z" fill="#D9D9D9"/>
<path d="M54.8363 25.9308L55.6911 26.4499L56.1722 25.5733L55.3175 25.0542L54.8363 25.9308ZM44.4564 44.8423L43.9752 45.7189L44.83 46.238L45.3111 45.3613L44.4564 44.8423ZM18.0152 4.73796L54.3552 26.8075L55.3175 25.0542L18.9776 2.98469L18.0152 4.73796ZM53.9816 25.4117L43.6017 44.3232L45.3111 45.3613L55.6911 26.4499L53.9816 25.4117ZM44.9376 43.9656L8.5976 21.8961L7.63529 23.6494L43.9752 45.7189L44.9376 43.9656Z" fill="black" mask="url(#path-21-inside-1_4_32)"/>
</g>
</g>
<line id="Line 18" y1="-0.5" x2="14.6534" y2="-0.5" transform="matrix(0.854725 0.51908 -0.481159 0.876633 23.8702 25.149)" stroke="black"/>
<line id="Line 19" y1="-0.5" x2="14.6534" y2="-0.5" transform="matrix(0.854725 0.51908 -0.481159 0.876633 25.353 31.0762)" stroke="black"/>
<line id="Line 20" y1="-0.5" x2="14.6534" y2="-0.5" transform="matrix(0.854725 0.51908 -0.481159 0.876633 24.4633 27.9567)" stroke="black"/>
<path id="Vector 1" d="M51.0064 24.3691L52.6375 24.681L19.4216 4.55976L18.3836 3.93584L17.7905 3.77986L17.1974 3.62388L16.6042 3.4679L15.8628 3.31192L14.9731 3.15594H13.7868L12.6005 3.31192L11.8591 3.4679L10.9694 3.77986L10.228 4.09182L9.33826 4.55976L8.44855 5.18367L7.85541 5.65161L7.26227 6.11955L6.81741 6.74346L6.22427 7.36738L5.77942 8.14727L5.33456 8.92717L4.88971 9.86304L4.59314 10.487L39.4401 31.7001L40.0333 30.2963L40.6264 29.2044L41.0713 28.5805L41.6644 27.8006L41.961 27.4887L42.5541 26.8647L42.999 26.3968L43.8887 25.7729L44.7784 25.305L45.8164 24.837L47.2992 24.3691L48.6338 24.2131H49.8201L51.0064 24.3691Z" fill="#BEBDBD" stroke="black"/>
<line id="Line 21" y1="-0.5" x2="14.6534" y2="-0.5" transform="matrix(0.854725 0.51908 -0.481159 0.876633 33.3604 15.4783)" stroke="black"/>
<line id="Line 23" y1="-0.5" x2="14.6534" y2="-0.5" transform="matrix(0.854725 0.51908 -0.481159 0.876633 30.0982 16.1022)" stroke="black"/>
</g>
<g id="cameraLen">
<g id="outerCameraLen">
<path id="Ellipse 1" d="M58.1891 39.3738C55.8721 44.6006 49.9805 46.8382 45.0465 44.418C40.1125 41.9979 37.955 35.8122 40.2721 30.5854C42.5892 25.3586 48.4807 23.121 53.4147 25.5411C58.3488 27.9613 60.5062 34.1469 58.1891 39.3738Z" fill="#4A025B" stroke="black"/>
<path id="Ellipse 3" d="M54.3988 37.6671C53.1278 40.5341 49.903 41.7507 47.2124 40.431C44.5218 39.1112 43.3349 35.7306 44.6059 32.8636C45.8768 29.9966 49.1017 28.78 51.7923 30.0998C54.4829 31.4195 55.6697 34.8001 54.3988 37.6671Z" fill="#AEAEAE" stroke="black"/>
<path id="Ellipse 4" d="M42.9197 31.9232C42.6925 32.4356 42.1285 32.6335 41.6764 32.4117C41.2243 32.19 41.0059 31.6083 41.233 31.0959C41.4602 30.5835 42.0242 30.3856 42.4763 30.6074C42.9284 30.8291 43.1468 31.4108 42.9197 31.9232Z" fill="#FF0000" stroke="black"/>
</g>
<g id="innerCameraLen">
<path id="Ellipse 2" d="M53.3875 37.1711C52.377 39.4506 49.816 40.413 47.684 39.3672C45.5519 38.3214 44.6067 35.6392 45.6172 33.3597C46.6277 31.0802 49.1886 30.1177 51.3207 31.1635C53.4528 32.2093 54.398 34.8916 53.3875 37.1711Z" fill="#1B1717" stroke="black"/>
<ellipse id="Ellipse 7" cx="50.521" cy="31.5987" rx="0.797019" ry="0.838373" fill="#D9D9D9"/>
<ellipse id="Ellipse 15" cx="48.2894" cy="38.641" rx="0.797019" ry="0.838373" fill="#D9D9D9"/>
<ellipse id="Ellipse 16" cx="48.2894" cy="31.934" rx="0.797019" ry="0.838373" fill="#D9D9D9"/>
<ellipse id="Ellipse 9" cx="46.6953" cy="33.1078" rx="0.797019" ry="0.838373" fill="#D9D9D9"/>
<ellipse id="Ellipse 10" cx="46.5359" cy="37.4673" rx="0.797019" ry="0.838373" fill="#D9D9D9"/>
<ellipse id="Ellipse 11" cx="50.521" cy="38.641" rx="0.797019" ry="0.838373" fill="#D9D9D9"/>
<ellipse id="Ellipse 13" cx="52.9121" cy="35.2875" rx="0.797019" ry="0.838373" fill="#D9D9D9"/>
<ellipse id="Ellipse 14" cx="46.0577" cy="35.2875" rx="0.797019" ry="0.838373" fill="#D9D9D9"/>
<ellipse id="Ellipse 12" cx="52.1151" cy="37.4673" rx="0.797019" ry="0.838373" fill="#D9D9D9"/>
<ellipse id="Ellipse 8" cx="52.1151" cy="33.1078" rx="0.797019" ry="0.838373" fill="#D9D9D9"/>
</g>
</g>
</g>
</g>
<defs>
<filter id="filter0_d_4_32" x="10.38" y="37.3154" width="14.8652" height="20.0423" filterUnits="userSpaceOnUse" color-interpolation-filters="sRGB">
<feFlood flood-opacity="0" result="BackgroundImageFix"/>
<feColorMatrix in="SourceAlpha" type="matrix" values="0 0 0 0 0 0 0 0 0 0 0 0 0 0 0 0 0 0 127 0" result="hardAlpha"/>
<feOffset dy="4"/>
<feGaussianBlur stdDeviation="2"/>
<feComposite in2="hardAlpha" operator="out"/>
<feColorMatrix type="matrix" values="0 0 0 0 0 0 0 0 0 0 0 0 0 0 0 0 0 0 0.25 0"/>
<feBlend mode="normal" in2="BackgroundImageFix" result="effect1_dropShadow_4_32"/>
<feBlend mode="normal" in="SourceGraphic" in2="effect1_dropShadow_4_32" result="shape"/>
</filter>
<filter id="filter1_d_4_32" x="12.448" y="47.3188" width="23.0056" height="21.7164" filterUnits="userSpaceOnUse" color-interpolation-filters="sRGB">
<feFlood flood-opacity="0" result="BackgroundImageFix"/>
<feColorMatrix in="SourceAlpha" type="matrix" values="0 0 0 0 0 0 0 0 0 0 0 0 0 0 0 0 0 0 127 0" result="hardAlpha"/>
<feOffset dy="4"/>
<feGaussianBlur stdDeviation="2"/>
<feComposite in2="hardAlpha" operator="out"/>
<feColorMatrix type="matrix" values="0 0 0 0 0 0 0 0 0 0 0 0 0 0 0 0 0 0 0.25 0"/>
<feBlend mode="normal" in2="BackgroundImageFix" result="effect1_dropShadow_4_32"/>
<feBlend mode="normal" in="SourceGraphic" in2="effect1_dropShadow_4_32" result="shape"/>
</filter>
<clipPath id="clip0_4_32">
<rect width="258" height="65" fill="white"/>
</clipPath>
</defs>
</svg>
